# xmcd
#
# Track frame offsets:
#	150
#	11490
#	27367
#	38452
#	50870
#	65062
#	79145
#	94085
#	106622
#	120117
#	135782
#	146415
#	160387
#	180437
#	189482
#
# Disc length: 2657 seconds
#
# Revision: 0
# Processed by: cddbd v1.4PL0 Copyright (c) Steve Scherf et al.
# Submitted via: audiograbber 1.81.03
#
DISCID=b40a5f0f
DTITLE=The Mercy Brothers - 30 Greatest Vol1
DYEAR=1900
DGENRE=
TTITLE0=Comin' On Stronger
TTITLE1=Sweet Harmony
TTITLE2=Uncle Tom
TTITLE3=Kentucky Turn Your Back
TTITLE4=Silver Dish Cafe
TTITLE5=Rocking Alone In The Old Rocking Chair
TTITLE6=Loving You From A Distance
TTITLE7=Who Wrote The Words
TTITLE8=Home Along The Highway
TTITLE9=Hello Mom
TTITLE10=Whistle On The River
TTITLE11=Did You Hear My Song
TTITLE12=Ghost Riders In The Sky
TTITLE13=It's So Easy To Please Me
TTITLE14=Your Eyes Don't Lie to Me
EXTD=
EXTT0=
EXTT1=
EXTT2=
EXTT3=
EXTT4=
EXTT5=
EXTT6=
EXTT7=
EXTT8=
EXTT9=
EXTT10=
EXTT11=
EXTT12=
EXTT13=
EXTT14=
PLAYORDER=
